<?xml version="1.0" encoding="UTF-8" standalone="no"?>
<!-- Uploaded to: SVG Repo, www.svgrepo.com, Transformed by: SVG Repo Tools -->

<svg
   width="800px"
   height="800px"
   viewBox="0 0 24 24"
   fill="none"
   version="1.1"
   id="svg3001"
   sodipodi:docname="gdpr.svg"
   inkscape:version="1.2.2 (b0a8486541, 2022-12-01)"
   xmlns:inkscape="http://www.inkscape.org/namespaces/inkscape"
   xmlns:sodipodi="http://sodipodi.sourceforge.net/DTD/sodipodi-0.dtd"
   xmlns="http://www.w3.org/2000/svg"
   xmlns:svg="http://www.w3.org/2000/svg">
  <defs
     id="defs3005" />
  <sodipodi:namedview
     id="namedview3003"
     pagecolor="#ffffff"
     bordercolor="#999999"
     borderopacity="1"
     inkscape:showpageshadow="0"
     inkscape:pageopacity="0"
     inkscape:pagecheckerboard="0"
     inkscape:deskcolor="#d1d1d1"
     showgrid="false"
     inkscape:zoom="0.515"
     inkscape:cx="5.8252427"
     inkscape:cy="453.39806"
     inkscape:window-width="1920"
     inkscape:window-height="1003"
     inkscape:window-x="0"
     inkscape:window-y="40"
     inkscape:window-maximized="1"
     inkscape:current-layer="svg3001" />
  <path
     fill-rule="evenodd"
     clip-rule="evenodd"
     d="m 11.867833,23.6728 c 0.08889,0.03041 0.175443,0.03158 0.264334,0 1.1357,-0.385974 9.224783,-3.46441 9.224783,-12.5465 V 2.9986196 A 0.46784749,0.46784749 0 0 0 21.002555,2.5436379 L 12.113453,0.31785342 a 0.46784749,0.46784749 0 0 0 -0.226906,0 L 2.9974446,2.5436379 A 0.46784749,0.46784749 0 0 0 2.6430501,2.9986196 v 8.1265114 c 0,8.990859 8.0914229,12.148829 9.2247829,12.547669 z M 17.630545,7.9999093 a 1.1697108,1.1697108 0 1 0 -1.90414,-1.359097 L 10.68067,13.705309 8.1484455,11.171915 a 1.1696187,1.1696187 0 0 0 -1.6538409,1.653841 l 3.5088564,3.508856 a 1.1696187,1.1696187 0 0 0 1.77782,-0.147372 l 5.848094,-8.1873307 z"
     fill="#000000"
     id="path2999"
     style="stroke-width:1.16962" />
</svg>
