<?xml version="1.0" encoding="UTF-8" standalone="no"?>
<!-- Uploaded to: SVG Repo, www.svgrepo.com, Transformed by: SVG Repo Tools -->

<svg
   fill="#000000"
   version="1.1"
   id="Capa_1"
   width="800px"
   height="800px"
   viewBox="0 0 31.653 31.653"
   xml:space="preserve"
   sodipodi:docname="teeth.svg"
   inkscape:version="1.2.2 (b0a8486541, 2022-12-01)"
   xmlns:inkscape="http://www.inkscape.org/namespaces/inkscape"
   xmlns:sodipodi="http://sodipodi.sourceforge.net/DTD/sodipodi-0.dtd"
   xmlns="http://www.w3.org/2000/svg"
   xmlns:svg="http://www.w3.org/2000/svg"><defs
   id="defs597" /><sodipodi:namedview
   id="namedview595"
   pagecolor="#ffffff"
   bordercolor="#999999"
   borderopacity="1"
   inkscape:showpageshadow="0"
   inkscape:pageopacity="0"
   inkscape:pagecheckerboard="0"
   inkscape:deskcolor="#d1d1d1"
   showgrid="false"
   inkscape:zoom="0.515"
   inkscape:cx="759.2233"
   inkscape:cy="86.407767"
   inkscape:window-width="1920"
   inkscape:window-height="1003"
   inkscape:window-x="0"
   inkscape:window-y="40"
   inkscape:window-maximized="1"
   inkscape:current-layer="g562" />
<g
   id="g562">
	<path
   d="M27.936,5.153c-0.644-2.089-2.629-3.698-4.123-4.654c-1.021-0.651-2.324-0.666-3.357-0.039l-2.667,1.616   c-1.207,0.731-2.718,0.731-3.924,0L11.198,0.46C10.163-0.167,8.86-0.152,7.841,0.499C6.345,1.455,4.359,3.064,3.716,5.153   C2.64,8.647,1.028,12.947,5.059,17.786c0,0-2.149,9.139,2.956,13.438c0,0,3.73,1.68,3.226-1.612   c-0.327-2.139-0.303-10.059,4.585-10.445c4.889,0.387,4.913,8.308,4.584,10.445c-0.503,3.292,3.226,1.612,3.226,1.612   c5.106-4.3,2.957-13.438,2.957-13.438C30.625,12.948,29.012,8.647,27.936,5.153z"
   id="path560"
   style="fill:#ffffff" />
</g>
<g
   id="g564">
</g>
<g
   id="g566">
</g>
<g
   id="g568">
</g>
<g
   id="g570">
</g>
<g
   id="g572">
</g>
<g
   id="g574">
</g>
<g
   id="g576">
</g>
<g
   id="g578">
</g>
<g
   id="g580">
</g>
<g
   id="g582">
</g>
<g
   id="g584">
</g>
<g
   id="g586">
</g>
<g
   id="g588">
</g>
<g
   id="g590">
</g>
<g
   id="g592">
</g>
</svg>
