<?xml version="1.0" encoding="UTF-8" standalone="no"?>
<svg
   width="210mm"
   height="210mm"
   viewBox="0 0 210 210"
   version="1.1"
   id="svg104"
   sodipodi:docname="retained-root.svg"
   inkscape:version="1.2.2 (b0a8486541, 2022-12-01)"
   xmlns:inkscape="http://www.inkscape.org/namespaces/inkscape"
   xmlns:sodipodi="http://sodipodi.sourceforge.net/DTD/sodipodi-0.dtd"
   xmlns="http://www.w3.org/2000/svg"
   xmlns:svg="http://www.w3.org/2000/svg">
  <defs
     id="defs108" />
  <sodipodi:namedview
     id="namedview106"
     pagecolor="#ffffff"
     bordercolor="#999999"
     borderopacity="1"
     inkscape:showpageshadow="0"
     inkscape:pageopacity="0"
     inkscape:pagecheckerboard="0"
     inkscape:deskcolor="#d1d1d1"
     inkscape:document-units="mm"
     showgrid="false"
     inkscape:zoom="1.0381746"
     inkscape:cx="286.07905"
     inkscape:cy="365.54545"
     inkscape:window-width="1920"
     inkscape:window-height="1003"
     inkscape:window-x="0"
     inkscape:window-y="40"
     inkscape:window-maximized="1"
     inkscape:current-layer="g102" />
  <g
     aria-label="CR"
     style="font-weight:700;font-size:70.0346px;line-height:1.25;font-family:'Nimbus Sans';-inkscape-font-specification:'Nimbus Sans, Bold';stroke-width:1.76422"
     id="g102">
    <g
       aria-label="RR"
       id="text467"
       style="font-size:72.8322px;stroke:#000000;stroke-width:0.164933;stroke-linecap:round;stroke-linejoin:round">
      <path
         d="m 68.037645,110.49883 h 12.527139 c 4.734093,0 6.773394,1.89363 6.773394,6.26357 v 2.18496 c -0.07283,1.38381 -0.07283,2.69479 -0.07283,3.49595 0,5.02542 0.291329,6.5549 1.602308,9.10402 h 11.725986 v -1.96647 c -1.675142,-0.94682 -2.330632,-2.0393 -2.330632,-4.36993 -0.291329,-15.65892 -0.582658,-16.38724 -7.356052,-19.30053 5.97224,-2.33063 8.95836,-6.627731 8.95836,-13.109797 0,-4.224268 -1.456644,-8.084374 -4.005771,-10.706333 -2.403462,-2.476295 -5.753743,-3.64161 -10.26934,-3.64161 H 57.112816 v 53.09467 h 10.924829 z m 0,-9.10403 V 87.556685 h 13.182628 c 3.131785,0 4.369932,0.291328 5.753744,1.383811 1.31098,1.092483 1.96647,2.913288 1.96647,5.389583 0,2.549127 -0.65549,4.588429 -1.96647,5.680911 -1.238147,1.01965 -2.621959,1.38381 -5.753744,1.38381 z"
         id="path1186" />
      <path
         d="m 120.33119,110.49883 h 12.52714 c 4.7341,0 6.7734,1.89363 6.7734,6.26357 v 2.18496 c -0.0728,1.38381 -0.0728,2.69479 -0.0728,3.49595 0,5.02542 0.29133,6.5549 1.60231,9.10402 h 11.72599 v -1.96647 c -1.67514,-0.94682 -2.33063,-2.0393 -2.33063,-4.36993 -0.29133,-15.65892 -0.58266,-16.38724 -7.35606,-19.30053 5.97224,-2.33063 8.95837,-6.627731 8.95837,-13.109797 0,-4.224268 -1.45665,-8.084374 -4.00578,-10.706333 -2.40346,-2.476295 -5.75374,-3.64161 -10.26934,-3.64161 h -28.47739 v 53.09467 h 10.92483 z m 0,-9.10403 V 87.556685 h 13.18263 c 3.13179,0 4.36993,0.291328 5.75375,1.383811 1.31098,1.092483 1.96647,2.913288 1.96647,5.389583 0,2.549127 -0.65549,4.588429 -1.96647,5.680911 -1.23815,1.01965 -2.62196,1.38381 -5.75375,1.38381 z"
         id="path1188" />
    </g>
  </g>
</svg>
